<svg version="1.1" id="Layer_1" xmlns="http://www.w3.org/2000/svg" xmlns:xlink="http://www.w3.org/1999/xlink" x="0px" y="0px"
	 width="100%" viewBox="0 0 512 512" enable-background="new 0 0 512 512" xml:space="preserve">
<path fill="#000000" opacity="1.000000" stroke="none" 
	d="
M513.000000,295.000000 
	C513.000000,367.633240 513.000000,440.266479 513.000000,512.949829 
	C342.445312,512.949829 171.890579,512.949829 1.000000,512.949829 
	C1.000000,440.645569 1.000000,368.290649 1.433553,295.475830 
	C2.243413,295.614410 2.829286,296.168915 2.965205,296.817719 
	C5.938335,311.009247 8.123861,325.413940 11.957431,339.366455 
	C18.643562,363.700989 29.699089,386.209015 44.431767,406.679413 
	C53.262165,418.948822 62.516521,431.080811 72.910461,442.009460 
	C83.048378,452.669006 94.256989,462.562866 106.102997,471.289581 
	C127.017113,486.696625 150.091400,498.463501 174.930405,506.272156 
	C184.598511,509.311493 194.257477,506.323425 194.018539,492.447235 
	C193.909515,486.116058 194.000000,479.781494 194.000000,473.448456 
	C194.000000,464.326996 194.000000,455.205566 194.000000,445.773865 
	C188.455688,446.569611 183.459061,447.962219 178.492615,447.861725 
	C167.490631,447.639069 156.398712,447.395355 145.535629,445.828156 
	C129.483536,443.512421 116.878975,435.492554 109.698227,420.273804 
	C106.887375,414.316559 104.163307,408.305084 101.043289,402.510223 
	C96.642174,394.335968 91.611320,386.645752 83.747139,381.165497 
	C78.023804,377.177155 71.715958,373.635834 68.715111,365.779755 
	C70.951889,365.161285 73.025383,364.210266 75.155869,364.058319 
	C93.163513,362.774048 105.602333,372.235474 116.082947,385.460144 
	C122.289055,393.291138 126.425209,402.685059 135.048126,408.713776 
	C143.567719,414.670319 152.734665,418.125519 163.045883,417.901825 
	C168.886337,417.775116 174.798996,417.091614 180.504700,415.854401 
	C185.155945,414.845856 190.049011,413.350983 193.843018,410.668823 
	C195.729538,409.335114 195.368134,404.846588 196.079086,401.798157 
	C196.184769,401.345062 196.743591,400.996338 196.845139,400.543762 
	C198.975571,391.049408 204.226059,383.306335 211.569397,375.626099 
	C205.393433,375.008179 200.147797,374.924042 195.093582,373.897461 
	C177.916489,370.408539 161.030121,366.045929 145.678543,357.027496 
	C135.265869,350.910461 125.361031,343.956573 118.241638,334.311584 
	C101.230339,311.265625 95.196327,284.436890 94.151779,256.375916 
	C93.836922,247.917664 94.882660,239.327408 96.092270,230.910736 
	C98.607101,213.412064 106.341736,198.176529 117.784904,184.829163 
	C119.854507,182.415176 120.236626,180.563171 119.267128,177.387421 
	C117.346573,171.096390 115.762993,164.576447 115.129631,158.045486 
	C113.917336,145.544891 116.418221,133.363083 120.026314,121.431046 
	C122.608421,112.891953 125.967613,110.946732 134.501251,113.238274 
	C152.419189,118.049789 169.364655,125.156136 184.878677,135.427292 
	C190.022522,138.832825 194.994507,141.201553 201.353714,138.142090 
	C204.310287,136.719650 207.909958,136.559769 211.249374,136.021744 
	C219.735229,134.654541 228.207886,133.113983 236.744690,132.182312 
	C243.940598,131.396973 251.228149,130.960861 258.458801,131.118637 
	C266.135040,131.286118 273.817841,132.124680 281.450562,133.056717 
	C289.812592,134.077820 298.229797,135.064621 306.422577,136.941086 
	C315.138062,138.937256 322.627106,140.261673 331.209656,134.308594 
	C345.704376,124.254723 361.883942,116.986565 379.397461,113.204666 
	C387.830353,111.383644 390.850037,112.692474 393.447754,121.019241 
	C395.022614,126.067261 395.909821,131.327209 397.174500,136.475113 
	C400.208160,148.823639 400.020050,161.233063 395.801544,173.105026 
	C393.495422,179.595154 394.982330,183.819473 399.054413,188.698105 
	C413.189453,205.632843 419.114197,225.745804 419.895721,247.394302 
	C420.439636,262.459595 418.671570,277.413361 414.995514,292.083771 
	C410.124268,311.523712 402.452728,329.540344 387.142029,343.186279 
	C381.743256,347.997955 375.627655,352.115753 369.453552,355.924988 
	C354.769104,364.984772 338.659912,370.311218 321.653259,372.999359 
	C315.533478,373.966675 309.412354,374.925323 302.665192,375.986481 
	C315.740143,389.127014 320.024597,404.678802 320.006287,421.827881 
	C319.981171,445.326721 319.840546,468.827118 320.063019,492.323883 
	C320.186005,505.310272 328.507416,509.596222 338.954285,506.350800 
	C357.997070,500.435028 376.123779,492.041229 392.956146,481.371307 
	C416.127838,466.682983 436.804413,448.983490 454.083801,427.476501 
	C467.253296,411.084900 478.897430,393.825714 488.141998,374.830719 
	C500.181305,350.093323 508.063263,324.294830 511.076416,296.969116 
	C511.155640,296.250793 512.334167,295.653656 513.000000,295.000000 
z"/>
<path fill="#FFFFFF" opacity="1.000000" stroke="none" 
	d="
M513.000000,294.531342 
	C512.334167,295.653656 511.155640,296.250793 511.076416,296.969116 
	C508.063263,324.294830 500.181305,350.093323 488.141998,374.830719 
	C478.897430,393.825714 467.253296,411.084900 454.083801,427.476501 
	C436.804413,448.983490 416.127838,466.682983 392.956146,481.371307 
	C376.123779,492.041229 357.997070,500.435028 338.954285,506.350800 
	C328.507416,509.596222 320.186005,505.310272 320.063019,492.323883 
	C319.840546,468.827118 319.981171,445.326721 320.006287,421.827881 
	C320.024597,404.678802 315.740143,389.127014 302.665192,375.986481 
	C309.412354,374.925323 315.533478,373.966675 321.653259,372.999359 
	C338.659912,370.311218 354.769104,364.984772 369.453552,355.924988 
	C375.627655,352.115753 381.743256,347.997955 387.142029,343.186279 
	C402.452728,329.540344 410.124268,311.523712 414.995514,292.083771 
	C418.671570,277.413361 420.439636,262.459595 419.895721,247.394302 
	C419.114197,225.745804 413.189453,205.632843 399.054413,188.698105 
	C394.982330,183.819473 393.495422,179.595154 395.801544,173.105026 
	C400.020050,161.233063 400.208160,148.823639 397.174500,136.475113 
	C395.909821,131.327209 395.022614,126.067261 393.447754,121.019241 
	C390.850037,112.692474 387.830353,111.383644 379.397461,113.204666 
	C361.883942,116.986565 345.704376,124.254723 331.209656,134.308594 
	C322.627106,140.261673 315.138062,138.937256 306.422577,136.941086 
	C298.229797,135.064621 289.812592,134.077820 281.450562,133.056717 
	C273.817841,132.124680 266.135040,131.286118 258.458801,131.118637 
	C251.228149,130.960861 243.940598,131.396973 236.744690,132.182312 
	C228.207886,133.113983 219.735229,134.654541 211.249374,136.021744 
	C207.909958,136.559769 204.310287,136.719650 201.353714,138.142090 
	C194.994507,141.201553 190.022522,138.832825 184.878677,135.427292 
	C169.364655,125.156136 152.419189,118.049789 134.501251,113.238274 
	C125.967613,110.946732 122.608421,112.891953 120.026314,121.431046 
	C116.418221,133.363083 113.917336,145.544891 115.129631,158.045486 
	C115.762993,164.576447 117.346573,171.096390 119.267128,177.387421 
	C120.236626,180.563171 119.854507,182.415176 117.784904,184.829163 
	C106.341736,198.176529 98.607101,213.412064 96.092270,230.910736 
	C94.882660,239.327408 93.836922,247.917664 94.151779,256.375916 
	C95.196327,284.436890 101.230339,311.265625 118.241638,334.311584 
	C125.361031,343.956573 135.265869,350.910461 145.678543,357.027496 
	C161.030121,366.045929 177.916489,370.408539 195.093582,373.897461 
	C200.147797,374.924042 205.393433,375.008179 211.569397,375.626099 
	C204.226059,383.306335 198.975571,391.049408 196.845139,400.543762 
	C196.743591,400.996338 196.184769,401.345062 196.079086,401.798157 
	C195.368134,404.846588 195.729538,409.335114 193.843018,410.668823 
	C190.049011,413.350983 185.155945,414.845856 180.504700,415.854401 
	C174.798996,417.091614 168.886337,417.775116 163.045883,417.901825 
	C152.734665,418.125519 143.567719,414.670319 135.048126,408.713776 
	C126.425209,402.685059 122.289055,393.291138 116.082947,385.460144 
	C105.602333,372.235474 93.163513,362.774048 75.155869,364.058319 
	C73.025383,364.210266 70.951889,365.161285 68.715111,365.779755 
	C71.715958,373.635834 78.023804,377.177155 83.747139,381.165497 
	C91.611320,386.645752 96.642174,394.335968 101.043289,402.510223 
	C104.163307,408.305084 106.887375,414.316559 109.698227,420.273804 
	C116.878975,435.492554 129.483536,443.512421 145.535629,445.828156 
	C156.398712,447.395355 167.490631,447.639069 178.492615,447.861725 
	C183.459061,447.962219 188.455688,446.569611 194.000000,445.773865 
	C194.000000,455.205566 194.000000,464.326996 194.000000,473.448456 
	C194.000000,479.781494 193.909515,486.116058 194.018539,492.447235 
	C194.257477,506.323425 184.598511,509.311493 174.930405,506.272156 
	C150.091400,498.463501 127.017113,486.696625 106.102997,471.289581 
	C94.256989,462.562866 83.048378,452.669006 72.910461,442.009460 
	C62.516521,431.080811 53.262165,418.948822 44.431767,406.679413 
	C29.699089,386.209015 18.643562,363.700989 11.957431,339.366455 
	C8.123861,325.413940 5.938335,311.009247 2.965205,296.817719 
	C2.829286,296.168915 2.243413,295.614410 1.433553,295.007996 
	C1.000000,273.979095 1.000000,252.958206 1.428034,231.461334 
	C2.206150,230.720123 2.816222,230.497726 2.867990,230.183365 
	C3.947755,223.626663 4.806262,217.030136 6.020161,210.499435 
	C11.792792,179.443069 24.038980,150.993713 41.024521,124.501076 
	C54.758610,103.079773 71.387032,84.217720 90.742332,67.650818 
	C106.186226,54.431839 122.823845,42.939968 141.065567,34.217232 
	C155.171463,27.472136 170.066788,22.277246 184.852982,17.081274 
	C203.019043,10.697590 222.103165,8.353188 241.164993,7.177837 
	C262.728882,5.848209 284.339142,7.059049 305.619568,11.090289 
	C328.106049,15.349985 349.742493,22.461147 370.238098,32.730873 
	C389.366180,42.315342 407.253510,53.800114 423.461090,67.881371 
	C438.577911,81.015038 452.324219,95.352608 464.106232,111.575943 
	C477.978699,130.677780 489.480194,151.097595 497.579163,173.264496 
	C504.168427,191.299438 509.282471,209.782669 511.078735,229.031693 
	C511.144928,229.741379 512.334106,230.346268 513.000000,231.000000 
	C513.000000,252.020889 513.000000,273.041779 513.000000,294.531342 
z"/>
<path fill="#000000" opacity="1.000000" stroke="none" 
	d="
M513.000000,230.531342 
	C512.334106,230.346268 511.144928,229.741379 511.078735,229.031693 
	C509.282471,209.782669 504.168427,191.299438 497.579163,173.264496 
	C489.480194,151.097595 477.978699,130.677780 464.106232,111.575943 
	C452.324219,95.352608 438.577911,81.015038 423.461090,67.881371 
	C407.253510,53.800114 389.366180,42.315342 370.238098,32.730873 
	C349.742493,22.461147 328.106049,15.349985 305.619568,11.090289 
	C284.339142,7.059049 262.728882,5.848209 241.164993,7.177837 
	C222.103165,8.353188 203.019043,10.697590 184.852982,17.081274 
	C170.066788,22.277246 155.171463,27.472136 141.065567,34.217232 
	C122.823845,42.939968 106.186226,54.431839 90.742332,67.650818 
	C71.387032,84.217720 54.758610,103.079773 41.024521,124.501076 
	C24.038980,150.993713 11.792792,179.443069 6.020161,210.499435 
	C4.806262,217.030136 3.947755,223.626663 2.867990,230.183365 
	C2.816222,230.497726 2.206150,230.720123 1.428034,230.992676 
	C1.000000,154.367828 1.000000,77.735657 1.000000,1.051745 
	C171.555359,1.051745 342.110748,1.051745 513.000000,1.051745 
	C513.000000,77.353905 513.000000,153.708298 513.000000,230.531342 
z"/>
</svg>