<svg version="1.1" preserveAspectRatio="none" xmlns="http://www.w3.org/2000/svg" width="500" height="500" viewBox="0 0 500 500"><rect width="100%" height="100%" fill="#212D94" fill-opacity="1"/><svg viewBox="74.196 337.3344 463.3437 210" width="333" height="150.92468074994866" x="83.5px" y="174.5377px" xmlns="http://www.w3.org/2000/svg" xmlns:xlink="http://www.w3.org/1999/xlink" preserveAspectRatio="none"><defs></defs><style>.a60p5ZquTEfillColor {fill:#F1F1F1;fill-opacity:0;}.ahs7pIl34ofillColor {fill:#0A0A0A;fill-opacity:0.1;}.background {fill:#212D94;fill-opacity:1;}.companyName {fill:#F1F1F1;fill-opacity:1;}.icon3-str {stroke:#0A0A0A;stroke-opacity:1;}.shapeStroke-str {stroke:#0A0A0A;stroke-opacity:1;}.text-str {stroke:#F1F1F1;stroke-opacity:1;}</style><g opacity="1" transform="rotate(0 74.196 337.3344)">
<svg width="231.6718" height="210" x="74.196" y="337.3344" version="1.1" preserveAspectRatio="none" viewBox="0 0 231.6718 210">
  <defs><rect x="13.125" y="13.125" width="205.4218" height="183.75" rx="0px" ry="0px" id="id-60p5ZquTE1685821771407"></rect></defs><use class="a60p5ZquTEfillColor text-str" style="stroke-width:26.25;" xlink:href="#id-60p5ZquTE1685821771407"></use>
</svg>
</g><g opacity="1" transform="rotate(0 305.8679 337.3344)">
<svg width="231.6718" height="210" x="305.8679" y="337.3344" version="1.1" preserveAspectRatio="none" viewBox="0 0 231.6718 210">
  <defs><rect x="13.125" y="13.125" width="205.4218" height="183.75" rx="0px" ry="0px" id="id-hs7pIl34o1685821771407"></rect></defs><use class="ahs7pIl34ofillColor icon3-str" style="stroke-width:26.25;" xlink:href="#id-hs7pIl34o1685821771407"></use>
</svg>
</g><g opacity="1" transform="rotate(0 84.196 347.3344)">
<svg width="443.3437" height="190" x="84.196" y="347.3344" version="1.1" preserveAspectRatio="none" viewBox="0 0 443.3437 190">
  <defs><rect x="0" y="0" width="443.3437" height="190" rx="0px" ry="0px" id="id-BO9lbzKc31685821771407"></rect></defs><use class="background shapeStroke-str" style="stroke-width:0;" xlink:href="#id-BO9lbzKc31685821771407"></use>
</svg>
</g><g opacity="1" transform="rotate(0 124.196 397.3344)">
<svg width="363.3437" height="90" x="124.196" y="397.3344" version="1.1" preserveAspectRatio="none" viewBox="4 -30.16 121.75999999999999 30.16">
  <g transform="matrix(1 0 0 1 0 0)" class="companyName"><path id="id-D6z1nYkh4" d="M33.32-30.16L33.40-30.16L33.40 0L28.76 0L28.76-16.84L18.56-2.36L18.48-2.36L8.52-16.16L8.52 0L4 0L4-30.16L4.04-30.16L18.56-9.60L33.32-30.16Z M48.12-17.96L48-16.48L48.64-17.40L59.60-29.12L65.60-29.12L53.56-16.40L66.04 0L60.12 0L50.16-13.44L48.12-11.44L48.12 0L43.40 0L43.40-29.12L48.12-29.12L48.12-17.96Z M77.68-17.96L77.56-16.48L78.20-17.40L89.16-29.12L95.16-29.12L83.12-16.40L95.60 0L89.68 0L79.72-13.44L77.68-11.44L77.68 0L72.96 0L72.96-29.12L77.68-29.12L77.68-17.96Z M120.04-29.12L125.76-29.12L114.84-9.44L114.84 0L110.20 0L110.20-9.44L99.44-29.12L105.16-29.12L112.68-14.76L120.04-29.12Z"/></g>
</svg>
</g></svg></svg>